<svg xmlns="http://www.w3.org/2000/svg"  viewBox="0 0 64 64" width="64px" height="64px"><linearGradient id="bJ77IbmfHv~HQGaQD4Isca" x1="30.231" x2="30.231" y1="3.924" y2="62.622" gradientUnits="userSpaceOnUse"><stop offset="0" stop-color="#1a6dff"/><stop offset="1" stop-color="#c822ff"/></linearGradient><path fill="url(#bJ77IbmfHv~HQGaQD4Isca)" d="M34,60c-7.72,0-14-6.28-14-14v-3c0-0.552,0.448-1,1-1c2.401,0,4-0.68,4-4	c0-4.135-3.83-8.902-11.15-10.011c-0.399-0.061-0.722-0.355-0.82-0.746c-0.223-0.892-2.052-8.905,2.326-15.516	c2.745-4.144,7.283-6.74,13.489-7.715c0.478-0.077,0.939,0.201,1.099,0.657c0.16,0.455-0.028,0.96-0.447,1.199	c-4.312,2.464-6.362,9.797-5.186,14.227C24.783,21.876,25.981,24,29,24c1.03,0,2.404-0.408,3.168-1.555	c0.244-0.367,0.7-0.532,1.122-0.402C33.711,22.17,34,22.56,34,23c0,3.525,2.416,5.462,5.475,7.915C43.273,33.96,48,37.75,48,46	C48,53.72,41.72,60,34,60z M22,43.954V46c0,6.617,5.383,12,12,12s12-5.383,12-12c0-7.29-3.953-10.459-7.776-13.525	c-2.666-2.137-5.209-4.176-5.984-7.389C31.187,25.74,29.985,26,29,26c-3.299,0-5.713-1.965-6.623-5.392	c-1.072-4.036,0.112-9.947,3.088-13.769c-3.755,1.183-6.586,3.19-8.442,5.992c-2.958,4.466-2.819,10.177-2.194,13.293	C22.823,27.6,27,33.146,27,38C27,41.633,25.319,43.632,22,43.954z"/><linearGradient id="bJ77IbmfHv~HQGaQD4Iscb" x1="41.102" x2="41.102" y1="3.924" y2="62.622" gradientUnits="userSpaceOnUse"><stop offset="0" stop-color="#1a6dff"/><stop offset="1" stop-color="#c822ff"/></linearGradient><path fill="url(#bJ77IbmfHv~HQGaQD4Iscb)" d="M42.5,30c-2.613,0-4.682-1.375-5.675-3.772c-1.227-2.961-0.582-6.886,1.468-8.935	c0.294-0.295,0.742-0.378,1.123-0.203c0.379,0.173,0.612,0.564,0.582,0.981c-0.249,3.474,2.787,4.825,3.723,5.156	c0.083,0.029,0.132,0.047,0.182,0.068c0.102,0.032,0.192,0.078,0.269,0.134C45.291,24.039,46,25.217,46,26.5	C46,28.43,44.43,30,42.5,30z M38.47,21.001c-0.391,1.438-0.353,3.119,0.203,4.462C39.152,26.62,40.206,28,42.5,28	c0.827,0,1.5-0.673,1.5-1.5c0-0.586-0.348-1.122-0.887-1.365c-0.01-0.004-0.02-0.009-0.03-0.014	C41.216,24.458,39.333,23.094,38.47,21.001z"/><linearGradient id="bJ77IbmfHv~HQGaQD4Iscc" x1="34.5" x2="34.5" y1="35.033" y2="52.102" gradientUnits="userSpaceOnUse"><stop offset="0" stop-color="#6dc7ff"/><stop offset="1" stop-color="#e6abff"/></linearGradient><path fill="url(#bJ77IbmfHv~HQGaQD4Iscc)" d="M36.5,42.5C35,41,34.75,35,34.5,33c-0.25,2-0.5,8-2,9.5s-4.5,1.75-6.5,2c2,0.25,5,0.25,6.5,2	s1.75,6.5,2,8.5c0.25-2,0.5-6.75,2-8.5s4.5-1.75,6.5-2C41,44.25,38,44,36.5,42.5z"/></svg>